<svg width="16" height="16" viewBox="0 0 16 16" fill="none" xmlns="http://www.w3.org/2000/svg">
<path d="M8.00006 0.559998C3.89006 0.559998 0.560059 3.89 0.560059 8C0.560059 12.11 3.89006 15.44 8.00006 15.44C12.1101 15.44 15.4401 12.11 15.4401 8C15.4401 3.89 12.1101 0.559998 8.00006 0.559998ZM11.6481 9.953C11.7891 10.094 11.7891 10.322 11.6481 10.463L10.4601 11.648C10.3191 11.789 10.0911 11.789 9.95006 11.648L8.00006 9.68L6.04706 11.648C5.90606 11.789 5.67806 11.789 5.53706 11.648L4.35206 10.46C4.21106 10.319 4.21106 10.091 4.35206 9.95L6.32006 8L4.35206 6.047C4.21106 5.906 4.21106 5.678 4.35206 5.537L5.54006 4.349C5.68106 4.208 5.90906 4.208 6.05006 4.349L8.00006 6.32L9.95306 4.352C10.0941 4.211 10.3221 4.211 10.4631 4.352L11.6511 5.54C11.7921 5.681 11.7921 5.909 11.6511 6.05L9.68006 8L11.6481 9.953Z" fill="#3366CC"/>
</svg>
