<svg width="536" height="64" viewBox="0 0 536 64" fill="none" xmlns="http://www.w3.org/2000/svg">
<rect opacity="0.3" y="5" width="8" height="27" fill="#3366CC"/>
<rect opacity="0.3" x="12" y="6" width="8" height="26" fill="#3366CC"/>
<rect opacity="0.3" x="24" y="10" width="8" height="22" fill="#3366CC"/>
<rect opacity="0.3" x="36" y="9" width="8" height="23" fill="#3366CC"/>
<rect opacity="0.6" x="48" y="9" width="8" height="23" fill="#3366CC"/>
<rect x="60" y="18" width="8" height="14" fill="#3366CC"/>
<rect x="72" y="5" width="8" height="27" fill="#3366CC"/>
<rect opacity="0.6" x="84" y="7" width="8" height="25" fill="#3366CC"/>
<rect opacity="0.6" x="96" y="3" width="8" height="29" fill="#3366CC"/>
<rect opacity="0.3" x="108" width="8" height="32" fill="#3366CC"/>
<rect x="120" y="20" width="8" height="12" fill="#3366CC"/>
<rect opacity="0.3" x="132" y="14" width="8" height="18" fill="#3366CC"/>
<rect opacity="0.3" x="144" y="9" width="8" height="23" fill="#3366CC"/>
<rect opacity="0.1" x="156" y="12" width="8" height="20" fill="#3366CC"/>
<rect opacity="0.6" x="168" y="7" width="8" height="25" fill="#3366CC"/>
<rect x="180" y="9" width="8" height="23" fill="#3366CC"/>
<rect opacity="0.1" x="192" y="1" width="8" height="31" fill="#3366CC"/>
<rect opacity="0.3" x="204" y="9" width="8" height="23" fill="#3366CC"/>
<rect opacity="0.1" x="216" y="9" width="8" height="23" fill="#3366CC"/>
<rect x="228" y="10" width="8" height="22" fill="#3366CC"/>
<rect opacity="0.1" x="240" y="3" width="8" height="29" fill="#3366CC"/>
<rect opacity="0.1" x="252" y="6" width="8" height="26" fill="#3366CC"/>
<rect opacity="0.6" x="264" y="9" width="8" height="23" fill="#3366CC"/>
<rect opacity="0.6" x="276" y="7" width="8" height="25" fill="#3366CC"/>
<rect opacity="0.3" x="288" y="16" width="8" height="16" fill="#3366CC"/>
<rect opacity="0.1" x="300" y="5" width="8" height="27" fill="#3366CC"/>
<rect opacity="0.3" x="312" y="16" width="8" height="16" fill="#3366CC"/>
<rect opacity="0.3" x="324" y="16" width="8" height="16" fill="#3366CC"/>
<rect opacity="0.3" x="336" y="14" width="8" height="18" fill="#3366CC"/>
<rect opacity="0.3" x="348" y="14" width="8" height="18" fill="#3366CC"/>
<rect opacity="0.1" x="360" y="19" width="8" height="13" fill="#3366CC"/>
<rect opacity="0.1" x="372" y="10" width="8" height="22" fill="#3366CC"/>
<rect opacity="0.6" x="384" y="9" width="8" height="23" fill="#3366CC"/>
<rect opacity="0.3" x="396" y="12" width="8" height="20" fill="#3366CC"/>
<rect opacity="0.3" x="408" y="7" width="8" height="25" fill="#3366CC"/>
<rect x="420" y="3" width="8" height="29" fill="#3366CC"/>
<rect opacity="0.1" x="432" y="7" width="8" height="25" fill="#3366CC"/>
<rect opacity="0.6" x="444" y="9" width="8" height="23" fill="#3366CC"/>
<rect opacity="0.1" x="456" y="16" width="8" height="16" fill="#3366CC"/>
<rect x="468" y="16" width="8" height="16" fill="#3366CC"/>
<rect opacity="0.1" x="480" y="16" width="8" height="16" fill="#3366CC"/>
<rect opacity="0.1" x="492" y="12" width="8" height="20" fill="#3366CC"/>
<rect opacity="0.3" x="504" y="10" width="8" height="22" fill="#3366CC"/>
<rect opacity="0.1" x="516" y="16" width="8" height="16" fill="#3366CC"/>
<rect x="528" y="16" width="8" height="16" fill="#3366CC"/>
<path d="M450.036 57V56.09C450.96 55.4087 451.73 54.8113 452.346 54.298C452.971 53.7847 453.471 53.318 453.844 52.898C454.217 52.478 454.483 52.0813 454.642 51.708C454.801 51.3253 454.88 50.9287 454.88 50.518C454.88 49.9673 454.703 49.524 454.348 49.188C454.003 48.8427 453.527 48.67 452.92 48.67C452.285 48.67 451.777 48.88 451.394 49.3C451.011 49.7107 450.787 50.2613 450.722 50.952L449.742 50.364C449.826 49.8227 449.999 49.3467 450.26 48.936C450.531 48.5253 450.89 48.2033 451.338 47.97C451.795 47.7367 452.337 47.62 452.962 47.62C453.438 47.62 453.863 47.69 454.236 47.83C454.619 47.97 454.945 48.1707 455.216 48.432C455.487 48.684 455.692 48.9873 455.832 49.342C455.981 49.6967 456.056 50.0887 456.056 50.518C456.056 51.0967 455.916 51.666 455.636 52.226C455.356 52.7767 454.894 53.3553 454.25 53.962C453.606 54.5687 452.733 55.2407 451.632 55.978V55.992C451.735 55.9827 451.875 55.978 452.052 55.978C452.239 55.9687 452.421 55.964 452.598 55.964C452.785 55.9547 452.925 55.95 453.018 55.95H456.252V57H450.036ZM461.516 57.14C460.471 57.14 459.635 56.734 459.01 55.922C458.385 55.11 458.072 53.9293 458.072 52.38C458.072 50.8307 458.385 49.65 459.01 48.838C459.635 48.026 460.471 47.62 461.516 47.62C462.571 47.62 463.406 48.026 464.022 48.838C464.647 49.65 464.96 50.8307 464.96 52.38C464.96 53.9293 464.647 55.11 464.022 55.922C463.406 56.734 462.571 57.14 461.516 57.14ZM461.516 56.132C462.011 56.132 462.426 55.992 462.762 55.712C463.107 55.4227 463.364 54.998 463.532 54.438C463.709 53.878 463.798 53.192 463.798 52.38C463.798 51.568 463.709 50.882 463.532 50.322C463.364 49.762 463.107 49.342 462.762 49.062C462.426 48.7727 462.011 48.628 461.516 48.628C461.021 48.628 460.601 48.7727 460.256 49.062C459.92 49.342 459.663 49.762 459.486 50.322C459.318 50.882 459.234 51.568 459.234 52.38C459.234 53.192 459.318 53.878 459.486 54.438C459.663 54.998 459.92 55.4227 460.256 55.712C460.601 55.992 461.021 56.132 461.516 56.132ZM466.907 57V56.09C467.831 55.4087 468.601 54.8113 469.217 54.298C469.842 53.7847 470.342 53.318 470.715 52.898C471.088 52.478 471.354 52.0813 471.513 51.708C471.672 51.3253 471.751 50.9287 471.751 50.518C471.751 49.9673 471.574 49.524 471.219 49.188C470.874 48.8427 470.398 48.67 469.791 48.67C469.156 48.67 468.648 48.88 468.265 49.3C467.882 49.7107 467.658 50.2613 467.593 50.952L466.613 50.364C466.697 49.8227 466.87 49.3467 467.131 48.936C467.402 48.5253 467.761 48.2033 468.209 47.97C468.666 47.7367 469.208 47.62 469.833 47.62C470.309 47.62 470.734 47.69 471.107 47.83C471.49 47.97 471.816 48.1707 472.087 48.432C472.358 48.684 472.563 48.9873 472.703 49.342C472.852 49.6967 472.927 50.0887 472.927 50.518C472.927 51.0967 472.787 51.666 472.507 52.226C472.227 52.7767 471.765 53.3553 471.121 53.962C470.477 54.5687 469.604 55.2407 468.503 55.978V55.992C468.606 55.9827 468.746 55.978 468.923 55.978C469.11 55.9687 469.292 55.964 469.469 55.964C469.656 55.9547 469.796 55.95 469.889 55.95H473.123V57H466.907ZM478.387 57.14C477.342 57.14 476.507 56.734 475.881 55.922C475.256 55.11 474.943 53.9293 474.943 52.38C474.943 50.8307 475.256 49.65 475.881 48.838C476.507 48.026 477.342 47.62 478.387 47.62C479.442 47.62 480.277 48.026 480.893 48.838C481.519 49.65 481.831 50.8307 481.831 52.38C481.831 53.9293 481.519 55.11 480.893 55.922C480.277 56.734 479.442 57.14 478.387 57.14ZM478.387 56.132C478.882 56.132 479.297 55.992 479.633 55.712C479.979 55.4227 480.235 54.998 480.403 54.438C480.581 53.878 480.669 53.192 480.669 52.38C480.669 51.568 480.581 50.882 480.403 50.322C480.235 49.762 479.979 49.342 479.633 49.062C479.297 48.7727 478.882 48.628 478.387 48.628C477.893 48.628 477.473 48.7727 477.127 49.062C476.791 49.342 476.535 49.762 476.357 50.322C476.189 50.882 476.105 51.568 476.105 52.38C476.105 53.192 476.189 53.878 476.357 54.438C476.535 54.998 476.791 55.4227 477.127 55.712C477.473 55.992 477.893 56.132 478.387 56.132Z" fill="#BABABA"/>
<path d="M300.036 57V56.09C300.96 55.4087 301.73 54.8113 302.346 54.298C302.971 53.7847 303.471 53.318 303.844 52.898C304.217 52.478 304.483 52.0813 304.642 51.708C304.801 51.3253 304.88 50.9287 304.88 50.518C304.88 49.9673 304.703 49.524 304.348 49.188C304.003 48.8427 303.527 48.67 302.92 48.67C302.285 48.67 301.777 48.88 301.394 49.3C301.011 49.7107 300.787 50.2613 300.722 50.952L299.742 50.364C299.826 49.8227 299.999 49.3467 300.26 48.936C300.531 48.5253 300.89 48.2033 301.338 47.97C301.795 47.7367 302.337 47.62 302.962 47.62C303.438 47.62 303.863 47.69 304.236 47.83C304.619 47.97 304.945 48.1707 305.216 48.432C305.487 48.684 305.692 48.9873 305.832 49.342C305.981 49.6967 306.056 50.0887 306.056 50.518C306.056 51.0967 305.916 51.666 305.636 52.226C305.356 52.7767 304.894 53.3553 304.25 53.962C303.606 54.5687 302.733 55.2407 301.632 55.978V55.992C301.735 55.9827 301.875 55.978 302.052 55.978C302.239 55.9687 302.421 55.964 302.598 55.964C302.785 55.9547 302.925 55.95 303.018 55.95H306.252V57H300.036ZM311.516 57.14C310.471 57.14 309.635 56.734 309.01 55.922C308.385 55.11 308.072 53.9293 308.072 52.38C308.072 50.8307 308.385 49.65 309.01 48.838C309.635 48.026 310.471 47.62 311.516 47.62C312.571 47.62 313.406 48.026 314.022 48.838C314.647 49.65 314.96 50.8307 314.96 52.38C314.96 53.9293 314.647 55.11 314.022 55.922C313.406 56.734 312.571 57.14 311.516 57.14ZM311.516 56.132C312.011 56.132 312.426 55.992 312.762 55.712C313.107 55.4227 313.364 54.998 313.532 54.438C313.709 53.878 313.798 53.192 313.798 52.38C313.798 51.568 313.709 50.882 313.532 50.322C313.364 49.762 313.107 49.342 312.762 49.062C312.426 48.7727 312.011 48.628 311.516 48.628C311.021 48.628 310.601 48.7727 310.256 49.062C309.92 49.342 309.663 49.762 309.486 50.322C309.318 50.882 309.234 51.568 309.234 52.38C309.234 53.192 309.318 53.878 309.486 54.438C309.663 54.998 309.92 55.4227 310.256 55.712C310.601 55.992 311.021 56.132 311.516 56.132ZM318.783 57V50.224C318.783 50.0653 318.783 49.8973 318.783 49.72C318.792 49.5333 318.802 49.342 318.811 49.146C318.494 49.454 318.125 49.7247 317.705 49.958C317.285 50.182 316.856 50.3453 316.417 50.448L316.123 49.426C316.291 49.4073 316.501 49.3467 316.753 49.244C317.014 49.132 317.285 48.9967 317.565 48.838C317.854 48.67 318.12 48.4927 318.363 48.306C318.606 48.1193 318.792 47.9373 318.923 47.76H319.903V57H318.783ZM325.484 47.62C326.259 47.62 326.912 47.8253 327.444 48.236C327.976 48.6373 328.378 49.1973 328.648 49.916C328.919 50.6253 329.054 51.4467 329.054 52.38C329.054 53.416 328.919 54.2887 328.648 54.998C328.378 55.698 327.976 56.23 327.444 56.594C326.922 56.958 326.273 57.14 325.498 57.14C324.733 57.14 324.075 56.9627 323.524 56.608C322.974 56.2533 322.563 55.7353 322.292 55.054L323.398 54.466C323.548 54.9513 323.79 55.3433 324.126 55.642C324.472 55.9407 324.943 56.09 325.54 56.09C326.026 56.09 326.427 55.9967 326.744 55.81C327.071 55.614 327.328 55.3387 327.514 54.984C327.701 54.62 327.832 54.186 327.906 53.682C327.99 53.178 328.032 52.618 328.032 52.002C328.032 51.9833 328.032 51.9647 328.032 51.946C328.032 51.918 328.032 51.8947 328.032 51.876H327.976C327.864 52.296 327.668 52.6367 327.388 52.898C327.108 53.15 326.791 53.332 326.436 53.444C326.091 53.556 325.746 53.612 325.4 53.612C324.794 53.612 324.257 53.4953 323.79 53.262C323.324 53.0193 322.96 52.6833 322.698 52.254C322.437 51.8247 322.306 51.316 322.306 50.728C322.306 50.0933 322.432 49.5473 322.684 49.09C322.936 48.6233 323.3 48.264 323.776 48.012C324.252 47.7507 324.822 47.62 325.484 47.62ZM325.498 48.698C324.845 48.698 324.346 48.88 324 49.244C323.655 49.5987 323.482 50.098 323.482 50.742C323.482 51.2927 323.664 51.7313 324.028 52.058C324.392 52.3753 324.882 52.534 325.498 52.534C325.9 52.534 326.25 52.4547 326.548 52.296C326.856 52.128 327.094 51.904 327.262 51.624C327.43 51.3347 327.514 51.0033 327.514 50.63C327.514 50.238 327.43 49.8973 327.262 49.608C327.094 49.3187 326.856 49.0947 326.548 48.936C326.25 48.7773 325.9 48.698 325.498 48.698Z" fill="#BABABA"/>
<path d="M150.036 57V56.09C150.96 55.4087 151.73 54.8113 152.346 54.298C152.971 53.7847 153.471 53.318 153.844 52.898C154.217 52.478 154.483 52.0813 154.642 51.708C154.801 51.3253 154.88 50.9287 154.88 50.518C154.88 49.9673 154.703 49.524 154.348 49.188C154.003 48.8427 153.527 48.67 152.92 48.67C152.285 48.67 151.777 48.88 151.394 49.3C151.011 49.7107 150.787 50.2613 150.722 50.952L149.742 50.364C149.826 49.8227 149.999 49.3467 150.26 48.936C150.531 48.5253 150.89 48.2033 151.338 47.97C151.795 47.7367 152.337 47.62 152.962 47.62C153.438 47.62 153.863 47.69 154.236 47.83C154.619 47.97 154.945 48.1707 155.216 48.432C155.487 48.684 155.692 48.9873 155.832 49.342C155.981 49.6967 156.056 50.0887 156.056 50.518C156.056 51.0967 155.916 51.666 155.636 52.226C155.356 52.7767 154.894 53.3553 154.25 53.962C153.606 54.5687 152.733 55.2407 151.632 55.978V55.992C151.735 55.9827 151.875 55.978 152.052 55.978C152.239 55.9687 152.421 55.964 152.598 55.964C152.785 55.9547 152.925 55.95 153.018 55.95H156.252V57H150.036ZM161.516 57.14C160.471 57.14 159.635 56.734 159.01 55.922C158.385 55.11 158.072 53.9293 158.072 52.38C158.072 50.8307 158.385 49.65 159.01 48.838C159.635 48.026 160.471 47.62 161.516 47.62C162.571 47.62 163.406 48.026 164.022 48.838C164.647 49.65 164.96 50.8307 164.96 52.38C164.96 53.9293 164.647 55.11 164.022 55.922C163.406 56.734 162.571 57.14 161.516 57.14ZM161.516 56.132C162.011 56.132 162.426 55.992 162.762 55.712C163.107 55.4227 163.364 54.998 163.532 54.438C163.709 53.878 163.798 53.192 163.798 52.38C163.798 51.568 163.709 50.882 163.532 50.322C163.364 49.762 163.107 49.342 162.762 49.062C162.426 48.7727 162.011 48.628 161.516 48.628C161.021 48.628 160.601 48.7727 160.256 49.062C159.92 49.342 159.663 49.762 159.486 50.322C159.318 50.882 159.234 51.568 159.234 52.38C159.234 53.192 159.318 53.878 159.486 54.438C159.663 54.998 159.92 55.4227 160.256 55.712C160.601 55.992 161.021 56.132 161.516 56.132ZM168.783 57V50.224C168.783 50.0653 168.783 49.8973 168.783 49.72C168.792 49.5333 168.802 49.342 168.811 49.146C168.494 49.454 168.125 49.7247 167.705 49.958C167.285 50.182 166.856 50.3453 166.417 50.448L166.123 49.426C166.291 49.4073 166.501 49.3467 166.753 49.244C167.014 49.132 167.285 48.9967 167.565 48.838C167.854 48.67 168.12 48.4927 168.363 48.306C168.606 48.1193 168.792 47.9373 168.923 47.76H169.903V57H168.783ZM175.638 47.634C176.236 47.634 176.754 47.732 177.192 47.928C177.631 48.124 177.972 48.404 178.214 48.768C178.457 49.1227 178.578 49.552 178.578 50.056C178.578 50.532 178.462 50.952 178.228 51.316C178.004 51.6707 177.687 51.9413 177.276 52.128V52.142C177.799 52.338 178.214 52.6367 178.522 53.038C178.84 53.4393 178.998 53.9293 178.998 54.508C178.998 55.0493 178.858 55.516 178.578 55.908C178.298 56.3 177.906 56.6033 177.402 56.818C176.908 57.0327 176.32 57.14 175.638 57.14C174.966 57.14 174.378 57.0327 173.874 56.818C173.37 56.6033 172.978 56.3 172.698 55.908C172.418 55.516 172.278 55.0493 172.278 54.508C172.278 53.9387 172.432 53.4533 172.74 53.052C173.048 52.6413 173.473 52.338 174.014 52.142V52.128C173.613 51.9507 173.291 51.6847 173.048 51.33C172.815 50.966 172.698 50.5413 172.698 50.056C172.698 49.552 172.82 49.1227 173.062 48.768C173.305 48.404 173.646 48.124 174.084 47.928C174.532 47.732 175.05 47.634 175.638 47.634ZM175.638 48.684C175.097 48.684 174.663 48.8147 174.336 49.076C174.019 49.3373 173.86 49.7013 173.86 50.168C173.86 50.6253 174.024 50.9847 174.35 51.246C174.677 51.5073 175.106 51.638 175.638 51.638C176.17 51.638 176.6 51.5073 176.926 51.246C177.253 50.9847 177.416 50.6253 177.416 50.168C177.416 49.7013 177.258 49.3373 176.94 49.076C176.623 48.8147 176.189 48.684 175.638 48.684ZM175.638 56.09C176.096 56.09 176.488 56.0247 176.814 55.894C177.141 55.754 177.393 55.558 177.57 55.306C177.748 55.0447 177.836 54.7413 177.836 54.396C177.836 54.0413 177.743 53.738 177.556 53.486C177.379 53.2247 177.127 53.0287 176.8 52.898C176.474 52.758 176.086 52.688 175.638 52.688C175.2 52.688 174.812 52.758 174.476 52.898C174.15 53.0287 173.893 53.2247 173.706 53.486C173.529 53.738 173.44 54.0413 173.44 54.396C173.44 54.7413 173.529 55.0447 173.706 55.306C173.884 55.558 174.136 55.754 174.462 55.894C174.798 56.0247 175.19 56.09 175.638 56.09Z" fill="#BABABA"/>
<path d="M1.036 57V56.09C1.96 55.4087 2.73 54.8113 3.346 54.298C3.97133 53.7847 4.47067 53.318 4.844 52.898C5.21733 52.478 5.48333 52.0813 5.642 51.708C5.80067 51.3253 5.88 50.9287 5.88 50.518C5.88 49.9673 5.70267 49.524 5.348 49.188C5.00267 48.8427 4.52667 48.67 3.92 48.67C3.28533 48.67 2.77667 48.88 2.394 49.3C2.01133 49.7107 1.78733 50.2613 1.722 50.952L0.742 50.364C0.826 49.8227 0.998667 49.3467 1.26 48.936C1.53067 48.5253 1.89 48.2033 2.338 47.97C2.79533 47.7367 3.33667 47.62 3.962 47.62C4.438 47.62 4.86267 47.69 5.236 47.83C5.61867 47.97 5.94533 48.1707 6.216 48.432C6.48667 48.684 6.692 48.9873 6.832 49.342C6.98133 49.6967 7.056 50.0887 7.056 50.518C7.056 51.0967 6.916 51.666 6.636 52.226C6.356 52.7767 5.894 53.3553 5.25 53.962C4.606 54.5687 3.73333 55.2407 2.632 55.978V55.992C2.73467 55.9827 2.87467 55.978 3.052 55.978C3.23867 55.9687 3.42067 55.964 3.598 55.964C3.78467 55.9547 3.92467 55.95 4.018 55.95H7.252V57H1.036ZM12.5161 57.14C11.4708 57.14 10.6354 56.734 10.0101 55.922C9.38478 55.11 9.07211 53.9293 9.07211 52.38C9.07211 50.8307 9.38478 49.65 10.0101 48.838C10.6354 48.026 11.4708 47.62 12.5161 47.62C13.5708 47.62 14.4061 48.026 15.0221 48.838C15.6474 49.65 15.9601 50.8307 15.9601 52.38C15.9601 53.9293 15.6474 55.11 15.0221 55.922C14.4061 56.734 13.5708 57.14 12.5161 57.14ZM12.5161 56.132C13.0108 56.132 13.4261 55.992 13.7621 55.712C14.1074 55.4227 14.3641 54.998 14.5321 54.438C14.7094 53.878 14.7981 53.192 14.7981 52.38C14.7981 51.568 14.7094 50.882 14.5321 50.322C14.3641 49.762 14.1074 49.342 13.7621 49.062C13.4261 48.7727 13.0108 48.628 12.5161 48.628C12.0214 48.628 11.6014 48.7727 11.2561 49.062C10.9201 49.342 10.6634 49.762 10.4861 50.322C10.3181 50.882 10.2341 51.568 10.2341 52.38C10.2341 53.192 10.3181 53.878 10.4861 54.438C10.6634 54.998 10.9201 55.4227 11.2561 55.712C11.6014 55.992 12.0214 56.132 12.5161 56.132ZM19.7831 57V50.224C19.7831 50.0653 19.7831 49.8973 19.7831 49.72C19.7924 49.5333 19.8018 49.342 19.8111 49.146C19.4938 49.454 19.1251 49.7247 18.7051 49.958C18.2851 50.182 17.8558 50.3453 17.4171 50.448L17.1231 49.426C17.2911 49.4073 17.5011 49.3467 17.7531 49.244C18.0144 49.132 18.2851 48.9967 18.5651 48.838C18.8544 48.67 19.1204 48.4927 19.3631 48.306C19.6058 48.1193 19.7924 47.9373 19.9231 47.76H20.9031V57H19.7831ZM22.8862 47.76H29.6902V48.81C28.9155 49.6313 28.2808 50.476 27.7862 51.344C27.3008 52.2027 26.9462 53.0987 26.7222 54.032C26.4982 54.9653 26.3862 55.9547 26.3862 57H25.2382C25.2382 55.964 25.3642 54.9513 25.6162 53.962C25.8775 52.9633 26.2695 52.0067 26.7922 51.092C27.3148 50.1773 27.9635 49.3233 28.7382 48.53L28.9202 48.81H22.8862V47.76Z" fill="#BABABA"/>
</svg>
