<svg width="16" height="16" viewBox="0 0 16 16" fill="none" xmlns="http://www.w3.org/2000/svg">
<path d="M14.64 12.9787L11.9813 10.32C11.8613 10.2 11.6987 10.1333 11.528 10.1333H11.0933C11.8293 9.19201 12.2667 8.00801 12.2667 6.72001C12.2667 3.65601 9.78399 1.17334 6.72 1.17334C3.656 1.17334 1.17334 3.65601 1.17334 6.72001C1.17334 9.78401 3.656 12.2667 6.72 12.2667C8.008 12.2667 9.19199 11.8293 10.1333 11.0933V11.528C10.1333 11.6987 10.2 11.8613 10.32 11.9813L12.9787 14.64C13.2293 14.8907 13.6347 14.8907 13.8827 14.64L14.6373 13.8853C14.888 13.6347 14.888 13.2293 14.64 12.9787ZM6.72 10.1333C4.83467 10.1333 3.30667 8.60801 3.30667 6.72001C3.30667 4.83467 4.832 3.30667 6.72 3.30667C8.60533 3.30667 10.1333 4.83201 10.1333 6.72001C10.1333 8.60534 8.608 10.1333 6.72 10.1333Z" fill="#BABABA"/>
</svg>
