<svg width="16" height="14" viewBox="0 0 16 14" fill="none" xmlns="http://www.w3.org/2000/svg">
<path d="M8.00013 10.8399C5.97747 10.8399 4.34013 9.27429 4.18947 7.29029L1.39213 5.12843C1.0244 5.58976 0.686 6.07749 0.412933 6.61083C0.351931 6.7315 0.320148 6.86481 0.320148 7.00003C0.320148 7.13524 0.351931 7.26856 0.412933 7.38923C1.85907 10.2108 4.722 12.1199 8.00013 12.1199C8.71773 12.1199 9.41 12.0132 10.0772 11.841L8.69347 10.7703C8.46494 10.8144 8.23287 10.8377 8.00013 10.8399ZM16.3687 12.3892L13.4207 10.1108C14.3162 9.35614 15.0527 8.43091 15.5873 7.38896C15.6483 7.26829 15.6801 7.13497 15.6801 6.99976C15.6801 6.86455 15.6483 6.73123 15.5873 6.61056C14.1412 3.78896 11.2783 1.87989 8.00013 1.87989C6.6272 1.88156 5.27656 2.22719 4.0716 2.88523L0.679067 0.263093C0.634827 0.228669 0.584238 0.203299 0.53019 0.188433C0.476142 0.173568 0.419695 0.169498 0.364073 0.176457C0.308452 0.183416 0.254747 0.201267 0.206027 0.22899C0.157308 0.256713 0.114528 0.293764 0.0801335 0.338027L-0.443333 1.01189C-0.512774 1.10122 -0.543889 1.21448 -0.529837 1.32674C-0.515785 1.43901 -0.457715 1.5411 -0.3684 1.61056L15.3212 13.7367C15.3654 13.7711 15.416 13.7965 15.4701 13.8114C15.5241 13.8262 15.5806 13.8303 15.6362 13.8233C15.6918 13.8164 15.7455 13.7985 15.7942 13.7708C15.843 13.7431 15.8857 13.706 15.9201 13.6618L16.4439 12.9879C16.5133 12.8985 16.5443 12.7853 16.5302 12.673C16.5161 12.5607 16.458 12.4586 16.3687 12.3892ZM11.4695 8.60256L10.4215 7.79243C10.5097 7.53735 10.5565 7.26978 10.5601 6.99989C10.5653 6.60476 10.4778 6.21392 10.3045 5.85876C10.1313 5.5036 9.87717 5.19402 9.56257 4.95488C9.24798 4.71575 8.88168 4.55374 8.49311 4.48185C8.10454 4.40996 7.70453 4.43021 7.3252 4.54096C7.486 4.75885 7.57299 5.02242 7.57347 5.29323C7.56949 5.38334 7.55572 5.47276 7.5324 5.55989L5.56947 4.04283C6.25133 3.47302 7.11153 3.16055 8.00013 3.15989C8.50449 3.15961 9.00395 3.25875 9.46997 3.45162C9.93599 3.6445 10.3594 3.92735 10.716 4.28398C11.0727 4.64061 11.3555 5.06404 11.5484 5.53006C11.7413 5.99607 11.8404 6.49554 11.8401 6.99989C11.8401 7.57669 11.6991 8.11429 11.4695 8.60283V8.60256Z" fill="#4B4B4B"/>
</svg>
